<svg width="60" height="60" viewBox="0 0 60 60" fill="none" xmlns="http://www.w3.org/2000/svg">
<rect width="60" height="60" rx="30" fill="white"/>
<path fill-rule="evenodd" clip-rule="evenodd" d="M20.4 14C16.8654 14 14 17.1838 14 21.1111V38.8889C14 42.8162 16.8654 46 20.4 46H39.6C43.1346 46 46 42.8162 46 38.8889V21.1111C46 17.1838 43.1346 14 39.6 14H20.4ZM21.0656 21.7794C20.5142 21.3709 19.7692 21.5365 19.4015 22.1492C19.0339 22.7619 19.1829 23.5897 19.7344 23.9982L25.7843 28.4796C28.3371 30.3706 31.6629 30.3706 34.2157 28.4796L40.2656 23.9982C40.8171 23.5897 40.9661 22.7619 40.5985 22.1492C40.2308 21.5365 39.4858 21.3709 38.9344 21.7794L32.8844 26.2608C31.1378 27.5547 28.8622 27.5547 27.1156 26.2608L21.0656 21.7794Z" fill="url(#paint0_linear_935_1764)"/>
<defs>
<linearGradient id="paint0_linear_935_1764" x1="30" y1="14" x2="30" y2="46" gradientUnits="userSpaceOnUse">
<stop stop-color="#CD36FC"/>
<stop offset="1" stop-color="#5E49E2"/>
</linearGradient>
</defs>
</svg>
