<svg width="60" height="60" viewBox="0 0 60 60" fill="none" xmlns="http://www.w3.org/2000/svg">
<circle cx="30" cy="30" r="30" fill="white"/>
<path fill-rule="evenodd" clip-rule="evenodd" d="M46 30C46 34.8214 43.8674 39.1447 40.4941 42.0781C37.6849 44.521 34.0152 46 30 46C25.9848 46 22.3151 44.521 19.5059 42.0781C16.1326 39.1447 14 34.8214 14 30C14 21.1634 21.1634 14 30 14C38.8366 14 46 21.1634 46 30ZM34.8 25.2C34.8 22.549 32.651 20.4 30 20.4C27.349 20.4 25.2 22.549 25.2 25.2C25.2 27.851 27.349 30 30 30C32.651 30 34.8 27.851 34.8 25.2ZM30 33.2C32.7404 33.2 34.5424 34.6666 35.8131 36.2968C36.7612 37.513 36.4348 39.2972 35.0595 39.9947C33.5398 40.7656 31.8206 41.2 30 41.2C28.1794 41.2 26.4602 40.7656 24.9405 39.9947C23.5651 39.2972 23.2388 37.513 24.1869 36.2968C25.4575 34.6666 27.2596 33.2 30 33.2Z" fill="url(#paint0_linear_935_1799)"/>
<defs>
<linearGradient id="paint0_linear_935_1799" x1="30" y1="14" x2="30" y2="46" gradientUnits="userSpaceOnUse">
<stop stop-color="#CD36FC"/>
<stop offset="1" stop-color="#5E49E2"/>
</linearGradient>
</defs>
</svg>
