<svg width="61" height="60" viewBox="0 0 61 60" fill="none" xmlns="http://www.w3.org/2000/svg">
<rect x="0.188843" width="60.708" height="60" rx="30" fill="#11CC31"/>
<path fill-rule="evenodd" clip-rule="evenodd" d="M46.7316 30C46.7316 34.8214 44.5739 39.1447 41.1607 42.0781C38.3184 44.521 34.6053 46 30.5428 46C26.4802 46 22.7672 44.521 19.9248 42.0781C16.5117 39.1447 14.354 34.8214 14.354 30C14.354 21.1634 21.602 14 30.5428 14C39.4836 14 46.7316 21.1634 46.7316 30ZM35.3994 25.2C35.3994 22.549 33.225 20.4 30.5428 20.4C27.8605 20.4 25.6862 22.549 25.6862 25.2C25.6862 27.851 27.8605 30 30.5428 30C33.225 30 35.3994 27.851 35.3994 25.2ZM30.5428 33.2C33.3155 33.2 35.1388 34.6666 36.4245 36.2968C37.3837 37.513 37.0536 39.2972 35.662 39.9947C34.1244 40.7656 32.3849 41.2 30.5428 41.2C28.7007 41.2 26.9612 40.7656 25.4236 39.9947C24.032 39.2972 23.7018 37.513 24.6611 36.2968C25.9467 34.6666 27.7701 33.2 30.5428 33.2Z" fill="url(#paint0_linear_1_8)"/>
<defs>
<linearGradient id="paint0_linear_1_8" x1="30.5428" y1="14" x2="30.5428" y2="46" gradientUnits="userSpaceOnUse">
<stop stop-color="white"/>
<stop offset="1" stop-color="#8CEA9C"/>
</linearGradient>
</defs>
</svg>
