<svg width="69" height="69" viewBox="0 0 69 69" fill="none" xmlns="http://www.w3.org/2000/svg">
<rect width="69" height="69" rx="19.2558" fill="#5F0EE6"/>
<g clip-path="url(#clip0_1_1431)">
<path d="M27.6641 34.5986V34.7793C27.6896 36.5973 28.4231 38.3338 29.7088 39.6194C30.9945 40.9051 32.7309 41.6387 34.5489 41.6642H34.6393C36.4914 41.6642 38.2677 40.9284 39.5773 39.6187C40.887 38.3091 41.6227 36.5328 41.6227 34.6807C41.6227 32.8286 40.887 31.0523 39.5773 29.7427C38.2677 28.433 36.4914 27.6973 34.6393 27.6973H34.59C32.7613 27.7101 31.0109 28.4405 29.7155 29.7313C28.4201 31.0221 27.6834 32.77 27.6641 34.5986ZM34.6393 37.4494C33.9364 37.411 33.275 37.1047 32.791 36.5935C32.307 36.0824 32.0373 35.4052 32.0373 34.7012C32.0373 33.9973 32.307 33.3201 32.791 32.809C33.275 32.2978 33.9364 31.9915 34.6393 31.9531H34.705C35.4216 31.9636 36.1059 32.2524 36.6134 32.7583C37.1209 33.2643 37.4117 33.9478 37.4244 34.6643V34.7382C37.4034 35.449 37.1088 36.1242 36.6022 36.6231C36.0956 37.1221 35.416 37.4063 34.705 37.4166L34.6393 37.4494Z" fill="white"/>
<path d="M21.4858 29.1844V29.3897C21.5439 30.0084 21.8269 30.5842 22.2812 31.0082C22.7354 31.4322 23.3294 31.6748 23.9506 31.6902C24.2826 31.6969 24.6125 31.6364 24.9205 31.5125C25.2286 31.3885 25.5084 31.2036 25.7432 30.9688C25.978 30.734 26.1629 30.4541 26.2869 30.1461C26.4109 29.838 26.4713 29.5081 26.4646 29.1761C26.4646 29.1761 26.4646 29.1268 26.4646 29.1022C26.4646 29.0775 26.4646 29.0365 26.4646 29.0118C26.3887 28.4206 26.3503 27.8251 26.3496 27.229C26.3496 26.9825 26.3496 26.736 26.3496 26.4896C26.7111 23.2608 28.9786 21.6258 30.2357 20.6235C30.6481 20.3272 31.0759 20.053 31.5173 19.8019C34.0402 18.3153 36.9646 17.6547 39.8815 17.9125C42.7984 18.1703 45.5616 19.3336 47.7846 21.2397L47.645 20.9357L47.5217 20.7221C46.2942 18.6978 44.5751 17.0166 42.524 15.8345C40.473 14.6524 38.1564 14.0078 35.7895 13.9604H35.2309C31.5513 14.0251 28.0442 15.5317 25.4643 18.1561C22.8845 20.7805 21.4381 24.3129 21.4365 27.9931C21.4365 28.3956 21.4365 28.8146 21.4858 29.1679V29.1844Z" fill="white"/>
<path d="M29.1679 47.5139H29.3733C29.992 47.4558 30.5678 47.1728 30.9918 46.7185C31.4157 46.2643 31.6584 45.6703 31.6737 45.0492C31.6805 44.7172 31.62 44.3873 31.496 44.0792C31.3721 43.7712 31.1871 43.4913 30.9523 43.2565C30.7175 43.0217 30.4377 42.8368 30.1297 42.7128C29.8216 42.5889 29.4917 42.5284 29.1597 42.5351H28.9954C28.4069 42.6108 27.8141 42.6492 27.2208 42.6501H26.4731C23.2443 42.2886 21.6094 40.0293 20.607 38.7641C20.308 38.3535 20.0337 37.9255 19.7855 37.4824C18.3011 34.9579 17.6433 32.0325 17.904 29.1156C18.1648 26.1986 19.3311 23.4363 21.2397 21.2151L20.9357 21.3548L20.7221 21.478C18.6978 22.7055 17.0166 24.4246 15.8345 26.4757C14.6524 28.5268 14.0078 30.8433 13.9604 33.2102C13.9612 33.1965 13.9612 33.1828 13.9604 33.1691C13.9604 33.2841 13.9604 33.4074 13.9604 33.5224V33.7689C14.0251 37.4484 15.5317 40.9555 18.1561 43.5354C20.7805 46.1152 24.3129 47.5616 27.9931 47.5632C28.3956 47.5632 28.7489 47.5468 29.1679 47.5139Z" fill="white"/>
<path d="M47.5137 39.8157V39.6103C47.4555 38.9916 47.1726 38.4158 46.7183 37.9918C46.2641 37.5679 45.6701 37.3252 45.0489 37.3098C44.7169 37.3031 44.387 37.3636 44.079 37.4875C43.7709 37.6115 43.4911 37.7964 43.2563 38.0312C43.0215 38.266 42.8365 38.5459 42.7126 38.8539C42.5886 39.162 42.5282 39.4919 42.5349 39.8239V39.8978C42.5349 39.8978 42.5349 39.9635 42.5349 39.9882C42.6105 40.5767 42.6489 41.1694 42.6499 41.7628C42.6499 42.0175 42.6499 42.264 42.6499 42.5104C42.2884 45.7393 40.0208 47.3742 38.7638 48.3765C38.3533 48.6756 37.9253 48.9499 37.4822 49.1981C34.9593 50.6847 32.0348 51.3453 29.118 51.0875C26.2011 50.8297 23.4378 49.6664 21.2148 47.7603L21.3874 48.0643L21.5106 48.2779C22.7351 50.2976 24.4491 51.9759 26.494 53.1577C28.5388 54.3395 30.8487 54.9868 33.2099 55.0396H33.7686C37.4482 54.975 40.9553 53.4683 43.5351 50.8439C46.115 48.2195 47.5614 44.6871 47.563 41.0069C47.563 40.6044 47.563 40.1854 47.5137 39.8321V39.8157Z" fill="white"/>
<path d="M55.0395 35.2311C54.9749 31.5516 53.4682 28.0445 50.8438 25.4646C48.2194 22.8847 44.687 21.4384 41.0069 21.4368C40.6125 21.4368 40.1853 21.4368 39.832 21.4861H39.6266C39.008 21.5442 38.4321 21.8272 38.0082 22.2814C37.5842 22.7357 37.3416 23.3296 37.3262 23.9508C37.3195 24.2828 37.3799 24.6127 37.5039 24.9208C37.6279 25.2288 37.8128 25.5086 38.0476 25.7434C38.2824 25.9782 38.5622 26.1632 38.8703 26.2871C39.1783 26.4111 39.5082 26.4716 39.8402 26.4648H40.0045C40.5931 26.3892 41.1858 26.3508 41.7792 26.3498H42.5268C45.7556 26.7113 47.3906 28.9789 48.3929 30.2359C48.6919 30.6465 48.9663 31.0744 49.2145 31.5176C50.6864 34.0376 51.3365 36.9536 51.0744 39.8602C50.8123 42.7668 49.651 45.5195 47.7521 47.7356L48.056 47.5631L48.2696 47.4398C50.2839 46.2207 51.9594 44.515 53.1423 42.4794C54.3253 40.4437 54.9776 38.1434 55.0395 35.7898C55.0387 35.8035 55.0387 35.8172 55.0395 35.8309C55.0395 35.7159 55.0395 35.5926 55.0395 35.4776V35.2311Z" fill="white"/>
</g>
<defs>
<clipPath id="clip0_1_1431">
<rect width="41.0791" height="41.0791" fill="white" transform="translate(13.9604 13.9604)"/>
</clipPath>
</defs>
</svg>
