<svg width="343" height="190" viewBox="0 0 343 190" fill="none" xmlns="http://www.w3.org/2000/svg">
<rect width="343" height="190" rx="14" fill="#C8DDDE" fill-opacity="0.5"/>
<path d="M109.567 60.9237C111.158 60.4058 112.028 58.6943 111.511 57.1009C110.994 55.5076 109.285 54.6357 107.694 55.1536C106.103 55.6715 105.233 57.383 105.75 58.9764C106.267 60.5697 107.976 61.4416 109.567 60.9237Z" fill="#CEE0E2"/>
<path d="M116.179 51.0258C117.261 50.6736 117.853 49.5098 117.501 48.4263C117.149 47.3428 115.987 46.7499 114.906 47.1021C113.824 47.4543 113.232 48.6181 113.583 49.7016C113.935 50.7851 115.097 51.3779 116.179 51.0258Z" fill="#CEE0E2"/>
<path d="M225.243 128.703C226.033 127.979 226.088 126.751 225.366 125.96C224.644 125.168 223.418 125.113 222.627 125.836C221.837 126.56 221.782 127.788 222.504 128.579C223.226 129.371 224.452 129.426 225.243 128.703Z" fill="#CEE0E2"/>
<path fill-rule="evenodd" clip-rule="evenodd" d="M93.2828 125.85C95.0241 124.229 96.0872 122.009 96.2584 119.636L96.4824 116.511L98.6156 118.805C100.237 120.546 102.457 121.609 104.829 121.781L107.954 122.005L105.66 124.138C103.919 125.759 102.856 127.979 102.685 130.352L102.461 133.476L100.327 131.182C98.7063 129.441 96.4863 128.378 94.1135 128.207L90.9891 127.983L93.2828 125.85Z" fill="#5F0EE6"/>
<path d="M239.299 88.5799L219.066 141.852C218.339 143.672 216.279 144.521 214.583 143.793L163.089 123.528C161.272 122.8 160.424 120.737 161.151 119.038L187.927 50.8405C188.654 49.0203 190.714 48.1709 192.41 48.8989L229.728 63.5821L239.299 88.5799Z" fill="white"/>
<path d="M216.037 121.708L185.141 109.573C184.656 109.452 184.535 108.967 184.656 108.481C184.777 107.996 185.262 107.875 185.746 107.996L216.642 120.131C217.127 120.252 217.248 120.737 217.127 121.223C216.885 121.587 216.4 121.83 216.037 121.708Z" fill="#CFE1E3"/>
<path d="M181.263 107.996L175.811 105.811C175.326 105.69 175.205 105.204 175.326 104.719C175.448 104.234 175.932 104.112 176.417 104.234L181.869 106.418C182.354 106.539 182.475 107.025 182.354 107.51C182.233 107.996 181.748 108.117 181.263 107.996Z" fill="#CEE0E2"/>
<path d="M219.187 113.335L205.375 107.874C204.89 107.753 204.769 107.267 204.89 106.782C205.011 106.297 205.496 106.175 205.98 106.297L219.793 111.757C220.277 111.879 220.398 112.364 220.277 112.85C220.156 113.335 219.671 113.456 219.187 113.335Z" fill="#CEE0E3"/>
<path d="M199.558 105.569L179.446 97.6809C178.961 97.5595 178.84 97.0741 178.961 96.5887C179.082 96.1033 179.567 95.982 180.052 96.1033L200.164 103.991C200.649 104.112 200.77 104.598 200.649 105.083C200.528 105.569 200.043 105.69 199.558 105.569Z" fill="#CEE0E2"/>
<path d="M222.7 105.083L217.369 103.02C216.885 102.899 216.763 102.413 216.885 101.928C217.006 101.443 217.49 101.321 217.975 101.443L223.306 103.506C223.791 103.627 223.912 104.112 223.791 104.598C223.67 105.083 223.185 105.204 222.7 105.083Z" fill="#CFE1E3"/>
<path d="M212.402 100.958L182.959 89.3083C182.475 89.187 182.354 88.7016 182.475 88.2162C182.596 87.7308 183.081 87.6094 183.565 87.7308L213.007 99.3802C213.492 99.5016 213.613 99.987 213.492 100.472C213.371 100.958 212.886 101.2 212.402 100.958Z" fill="#CFE1E3"/>
<path d="M189.018 121.587L187.2 120.859C186.716 120.738 186.594 120.252 186.716 119.767C186.837 119.281 187.321 119.16 187.806 119.281L189.623 120.009C190.108 120.131 190.229 120.616 190.108 121.102C189.866 121.587 189.381 121.708 189.018 121.587Z" fill="#CEE0E2"/>
<path d="M183.808 119.524L172.903 115.155C172.419 115.034 172.298 114.548 172.419 114.063C172.54 113.577 173.025 113.456 173.509 113.577L184.414 117.946C184.898 118.067 185.019 118.553 184.898 119.038C184.777 119.524 184.171 119.645 183.808 119.524Z" fill="#CEE0E2"/>
<path d="M226.335 96.8319L207.313 89.3083C206.828 89.187 206.707 88.7016 206.828 88.2162C206.95 87.7308 207.434 87.6094 207.919 87.7308L226.941 95.2544C227.426 95.3757 227.547 95.8611 227.426 96.3465C227.305 96.8319 226.699 96.9533 226.335 96.8319Z" fill="#CFE1E3"/>
<path d="M201.134 86.8813L186.473 81.0566C185.989 80.9353 185.867 80.4499 185.989 79.9645C186.11 79.4791 186.594 79.3577 187.079 79.4791L201.739 85.4251C202.224 85.5465 202.345 86.0319 202.224 86.5173C202.103 87.0027 201.618 87.124 201.134 86.8813Z" fill="#CEE0E2"/>
<path d="M218.944 72.198L194.227 62.4902C193.622 62.2475 193.379 61.6407 193.622 61.034C193.864 60.4272 194.47 60.1845 195.076 60.4272L219.792 70.1351C220.398 70.3778 220.641 70.9845 220.398 71.5913C220.156 72.198 219.55 72.4407 218.944 72.198Z" fill="#287C84" fill-opacity="0.22"/>
<path d="M201.376 72.0764L191.926 68.3146C191.32 68.0719 191.078 67.4652 191.32 66.8584C191.562 66.2517 192.168 66.009 192.774 66.2517L202.224 70.0135C202.83 70.2562 203.072 70.8629 202.83 71.4697C202.588 72.0764 201.861 72.3191 201.376 72.0764Z" fill="#287C84" fill-opacity="0.22"/>
<path d="M229.728 63.5823L224.033 78.1441C223.185 80.207 224.397 82.634 226.335 83.3621L239.299 88.4587" fill="#7CCCD4"/>
<g filter="url(#filter0_d_1_6586)">
<path d="M196.208 67.4959L204.044 139.887C204.277 142.303 202.546 144.542 200.013 144.787L129.703 151.57C127.291 151.802 125.054 150.067 124.809 147.531L115.825 54.4037C115.592 51.988 117.324 49.7484 119.856 49.5041L170.87 44.5826L196.208 67.4959Z" fill="white"/>
</g>
<path d="M158.093 134.201L155.56 134.446C154.957 134.504 154.428 134.067 154.37 133.463C154.312 132.859 154.748 132.33 155.351 132.272L157.883 132.027C158.486 131.969 159.015 132.406 159.073 133.01C159.132 133.613 158.696 134.143 158.093 134.201Z" fill="#CEE0E2"/>
<path d="M150.978 134.888L136.023 136.33C135.42 136.389 134.891 135.952 134.833 135.348C134.775 134.744 135.21 134.214 135.813 134.156L150.768 132.714C151.371 132.655 151.9 133.092 151.958 133.696C152.016 134.3 151.581 134.83 150.978 134.888Z" fill="#CEE0E2"/>
<path d="M163.535 60.6512L129.766 63.9089C129.043 63.9788 128.261 63.4446 128.179 62.5991C128.109 61.8744 128.643 61.0915 129.487 61.01L163.255 57.7523C163.979 57.6825 164.76 58.2167 164.842 59.0622C164.803 59.9193 164.258 60.5814 163.535 60.6512Z" fill="#CBDDE0"/>
<path d="M143.451 70.7566L130.547 72.0015C129.824 72.0713 129.042 71.5371 128.96 70.6916C128.89 69.9669 129.423 69.184 130.268 69.1026L143.172 67.8577C143.895 67.7879 144.677 68.322 144.759 69.1675C144.72 70.0246 144.175 70.6868 143.451 70.7566Z" fill="#CBDDE0"/>
<path d="M170.882 44.7031L172.805 64.6331C173.073 67.4112 175.706 69.4735 178.48 69.2059L196.208 67.4956" fill="#7CCCD4"/>
<path d="M186.406 81.9738L168.799 83.6724C168.799 83.6724 168.799 83.6724 168.678 83.6841C168.678 83.6841 168.678 83.6841 168.558 83.6957L150.467 85.4409C150.467 85.4409 150.467 85.4409 150.347 85.4525C150.347 85.4525 150.347 85.4525 150.226 85.4642L133.222 87.1046C131.292 87.2908 129.996 89.0007 130.183 90.9333L133.142 121.613C133.329 123.546 135.048 124.965 136.857 124.79L189.922 119.671C191.851 119.485 193.147 117.775 192.96 115.843L190.001 85.1625C189.935 83.2182 188.216 81.7992 186.406 81.9738ZM154.054 112.525L153.39 105.64L169.671 104.069L170.335 110.954L154.054 112.525ZM170.533 113.008L171.151 119.409L154.87 120.98L154.252 114.578L170.533 113.008ZM168.797 95.0104L169.461 101.895L153.18 103.466L152.516 96.5811L168.797 95.0104ZM152.318 94.5277L151.63 87.4012L167.911 85.8305L168.599 92.957L152.318 94.5277ZM189.481 99.9639L171.511 101.697L170.847 94.8126L188.817 93.079L189.481 99.9639ZM151.13 103.664L133.643 105.351L132.979 98.4659L150.345 96.7905L151.009 103.675L151.13 103.664ZM133.853 107.525L151.219 105.85L151.883 112.734L134.517 114.41L133.853 107.525ZM171.721 103.872L189.691 102.138L190.355 109.023L172.385 110.757L171.721 103.872ZM188.071 85.3486L188.619 91.0256L170.649 92.7592L169.962 85.6327L186.605 84.0272C187.328 83.9573 187.989 84.5031 188.071 85.3486ZM133.42 89.158L149.46 87.6106L150.147 94.7371L132.781 96.4125L132.233 90.7355C132.151 89.89 132.696 89.2278 133.42 89.158ZM135.193 121.416L134.715 116.463L152.081 114.788L152.699 121.19L136.659 122.737C135.935 122.807 135.274 122.261 135.193 121.416ZM189.844 117.606L173.201 119.212L172.584 112.81L190.553 111.076L191.031 116.029C191.112 116.874 190.568 117.536 189.844 117.606Z" fill="#CEE0E2"/>
<path d="M177.803 83.1391C176.727 83.2429 174.051 82.5194 173.159 82.2782C168.442 80.6607 160.435 75.3248 156.346 75.7193C152.258 76.1137 145.407 82.7739 141.097 85.3713C140.375 85.7682 137.779 87.0003 136.703 87.1041C134.992 87.3782 133.847 89.0158 134.219 90.6162C135.035 94.5733 136.799 101.602 140.483 110.519C145.235 121.513 156.006 127.346 160.098 129.242C161.118 129.689 162.194 129.585 163.111 128.952C166.765 126.308 176.222 118.524 178.57 106.844C180.481 97.3883 180.869 90.1517 180.913 86.1114C180.972 84.4696 179.535 83.0811 177.803 83.1391Z" fill="url(#paint0_linear_1_6586)"/>
<path d="M176.79 87.2725C176.672 90.5562 176.343 96.1509 175.074 103.254C174.942 104.14 174.713 105.144 174.474 106.039C172.476 115.722 164.873 122.455 161.121 125.216C160.67 125.042 160.208 124.759 159.747 124.476C155.279 122.071 147.851 117.116 144.456 108.935C141.2 101.068 139.488 94.5798 138.595 90.9572C140.49 90.3381 142.774 89.2451 143.183 88.9875C144.929 87.9464 146.858 86.5604 148.875 84.9479C151.096 83.2065 155.246 80.0791 156.753 79.9338C158.259 79.7885 162.941 82.1728 165.444 83.3494C167.721 84.4387 169.89 85.5384 171.802 86.2265C172.351 86.2827 174.812 87.027 176.79 87.2725Z" fill="url(#paint1_linear_1_6586)"/>
<path d="M157.211 109.45L150.13 103.588C149.658 103.197 149.575 102.333 149.963 101.859L152.295 99.0162C152.684 98.5424 153.545 98.4594 154.017 98.8502L157.321 101.586C157.793 101.976 158.439 101.914 158.72 101.451L166.007 92.5667C166.396 92.0929 167.257 92.0098 167.729 92.4006L170.561 94.7453C171.033 95.136 171.117 96.0006 170.728 96.4744L160.439 109.138C159.554 110.096 158.155 110.231 157.211 109.45Z" fill="url(#paint2_linear_1_6586)"/>
<path fill-rule="evenodd" clip-rule="evenodd" d="M233.596 44.744C235.777 43.7939 237.518 42.0533 238.468 39.8723L239.718 37L240.967 39.8723C241.917 42.0533 243.658 43.7939 245.839 44.744L248.711 45.9936L245.839 47.2432C243.658 48.1934 241.917 49.9339 240.967 52.1149L239.718 54.9872L238.468 52.1149C237.518 49.9339 235.777 48.1934 233.596 47.2432L230.724 45.9936L233.596 44.744Z" fill="#FF5D00"/>
<path fill-rule="evenodd" clip-rule="evenodd" d="M247.227 54.2521C248.51 53.6932 249.533 52.6693 250.092 51.3864L250.827 49.6968L251.563 51.3864C252.121 52.6693 253.145 53.6932 254.428 54.2521L256.118 54.9871L254.428 55.7222C253.145 56.2811 252.121 57.3049 251.563 58.5879L250.827 60.2775L250.092 58.5879C249.533 57.3049 248.51 56.2811 247.227 55.7222L245.537 54.9871L247.227 54.2521Z" fill="#FF5D00" fill-opacity="0.5"/>
<defs>
<filter id="filter0_d_1_6586" x="103.107" y="21.3049" width="134.816" height="153.563" filterUnits="userSpaceOnUse" color-interpolation-filters="sRGB">
<feFlood flood-opacity="0" result="BackgroundImageFix"/>
<feColorMatrix in="SourceAlpha" type="matrix" values="0 0 0 0 0 0 0 0 0 0 0 0 0 0 0 0 0 0 127 0" result="hardAlpha"/>
<feOffset dx="10.5807"/>
<feGaussianBlur stdDeviation="11.6388"/>
<feColorMatrix type="matrix" values="0 0 0 0 0.397708 0 0 0 0 0.47749 0 0 0 0 0.575 0 0 0 0.18 0"/>
<feBlend mode="normal" in2="BackgroundImageFix" result="effect1_dropShadow_1_6586"/>
<feBlend mode="normal" in="SourceGraphic" in2="effect1_dropShadow_1_6586" result="shape"/>
</filter>
<linearGradient id="paint0_linear_1_6586" x1="155.398" y1="92.6306" x2="172.697" y2="112.452" gradientUnits="userSpaceOnUse">
<stop stop-color="#86BFC5"/>
<stop offset="1" stop-color="#7BCCD3"/>
</linearGradient>
<linearGradient id="paint1_linear_1_6586" x1="174.046" y1="113.422" x2="148.281" y2="86.5321" gradientUnits="userSpaceOnUse">
<stop stop-color="#287C84"/>
<stop offset="1" stop-color="#287C84"/>
</linearGradient>
<linearGradient id="paint2_linear_1_6586" x1="164.827" y1="103.009" x2="157.667" y2="96.6267" gradientUnits="userSpaceOnUse">
<stop offset="0.0113208" stop-color="#ADDEE2"/>
<stop offset="1" stop-color="white"/>
</linearGradient>
</defs>
</svg>
