<svg width="146" height="20" viewBox="0 0 146 20" fill="none" xmlns="http://www.w3.org/2000/svg">
<path d="M91.4725 3.94568V15.9147H89.0271V3.94568H91.4725Z" fill="white"/>
<path d="M101.453 7.84538V15.9419C101.453 18.455 99.4932 20 97.0943 20C94.7818 20 93.0541 18.5677 92.888 16.5453L95.3267 16.5585C95.4264 17.4206 96.1839 17.7919 97.1807 17.7919C98.1243 17.7919 99.0015 17.288 99.0015 15.975V14.9406C98.3768 15.3451 97.5794 15.5838 96.689 15.5838C94.4562 15.5838 92.6687 13.7801 92.6687 11.7046C92.6687 9.29094 94.4629 7.67297 96.689 7.67297C97.5861 7.67297 98.3768 7.91169 99.0015 8.31618V7.87854L101.453 7.84538ZM99.0081 12.6131V10.6437C98.5097 9.92089 97.8186 9.68218 97.1342 9.68218C95.9314 9.68218 95.0942 10.4845 95.0942 11.7046C95.0942 12.5998 95.9314 13.5812 97.1342 13.5812C97.8186 13.5746 98.5097 13.3292 99.0081 12.6131Z" fill="white"/>
<path d="M111.209 11.7833C111.209 14.2765 109.362 16.0537 106.883 16.0537C104.384 16.0537 102.537 14.2765 102.537 11.7833C102.537 9.3099 104.384 7.49963 106.883 7.49963C109.362 7.49963 111.209 9.3099 111.209 11.7833ZM108.85 11.7833C108.85 10.6096 108.079 9.66135 106.883 9.66135C105.674 9.66135 104.903 10.6096 104.903 11.7833C104.903 12.9901 105.674 13.8919 106.883 13.8919C108.072 13.8853 108.85 12.9901 108.85 11.7833Z" fill="white"/>
<path d="M126.393 7.85832V15.9017L123.995 15.915V15.4575C123.37 15.862 122.573 16.1139 121.682 16.1139C119.449 16.1139 117.662 14.2241 117.662 11.8966C117.662 9.55586 119.456 7.66602 121.682 7.66602C122.579 7.66602 123.37 7.918 123.995 8.32249V7.86495L126.393 7.85832ZM123.995 13.13V10.6632C123.49 9.94709 122.785 9.74816 122.081 9.74816C120.852 9.74816 120.001 10.7296 120.001 11.9032C120.001 13.0637 120.852 14.0451 122.081 14.0451C122.785 14.0384 123.49 13.8461 123.995 13.13Z" fill="white"/>
<path d="M136.255 11.5455V15.9153H133.896V11.8306C133.896 10.5177 133.238 9.82142 132.068 9.82142C131.457 9.82142 130.786 10.1729 130.208 10.8492V15.9153H127.796V7.8719H130.208V8.48196C130.866 7.95811 131.63 7.67297 132.54 7.67297C134.693 7.67297 136.255 9.18485 136.255 11.5455Z" fill="white"/>
<path d="M87.911 15.9078H85.4191L83.7977 9.89349L80.3091 15.9078H77.5248L82.9073 6.59787L82.0434 3.36193L74.7804 15.9145H71.9961L81.1995 0H83.6383L84.7081 3.95209H87.2266L85.5055 6.93605L87.911 15.9078Z" fill="white"/>
<path d="M145.996 3.94547V15.9145H143.551V15.4569C142.926 15.8614 142.129 16.1134 141.238 16.1134C139.006 16.1134 137.218 14.2236 137.218 11.8828C137.218 9.55532 139.012 7.66548 141.238 7.66548C142.135 7.66548 142.926 7.91746 143.551 8.32195V3.93884L145.996 3.94547ZM143.551 13.1361V10.6494C143.039 9.92666 142.328 9.72773 141.624 9.72773C140.388 9.72773 139.531 10.7157 139.531 11.8828C139.531 13.0698 140.388 14.0578 141.624 14.0578C142.328 14.0578 143.039 13.8589 143.551 13.1361Z" fill="white"/>
<path d="M117.223 9.89978C116.691 9.96609 115.442 10.0258 114.711 11.0337V15.9208H112.299V7.88395H114.711V8.48738C115.263 8.01657 116.093 7.73807 117.223 7.8508V9.89978Z" fill="white"/>
<path d="M4.488 9.096C4.488 9.37867 4.42133 9.64533 4.288 9.896C4.15467 10.1467 3.94133 10.352 3.648 10.512C3.35467 10.6667 2.97867 10.744 2.52 10.744H1.512V13H0.6V7.44H2.52C2.94667 7.44 3.30667 7.51467 3.6 7.664C3.89867 7.808 4.12 8.00533 4.264 8.256C4.41333 8.50667 4.488 8.78667 4.488 9.096ZM2.52 10C2.86667 10 3.12533 9.92267 3.296 9.768C3.46667 9.608 3.552 9.384 3.552 9.096C3.552 8.488 3.208 8.184 2.52 8.184H1.512V10H2.52ZM8.89381 13.056C8.37648 13.056 7.89915 12.936 7.46181 12.696C7.02981 12.4507 6.68581 12.112 6.42981 11.68C6.17915 11.2427 6.05381 10.752 6.05381 10.208C6.05381 9.664 6.17915 9.176 6.42981 8.744C6.68581 8.312 7.02981 7.976 7.46181 7.736C7.89915 7.49067 8.37648 7.368 8.89381 7.368C9.41648 7.368 9.89381 7.49067 10.3258 7.736C10.7631 7.976 11.1071 8.312 11.3578 8.744C11.6085 9.176 11.7338 9.664 11.7338 10.208C11.7338 10.752 11.6085 11.2427 11.3578 11.68C11.1071 12.112 10.7631 12.4507 10.3258 12.696C9.89381 12.936 9.41648 13.056 8.89381 13.056ZM8.89381 12.264C9.26181 12.264 9.58981 12.1813 9.87781 12.016C10.1658 11.8453 10.3898 11.6053 10.5498 11.296C10.7151 10.9813 10.7978 10.6187 10.7978 10.208C10.7978 9.79733 10.7151 9.43733 10.5498 9.128C10.3898 8.81867 10.1658 8.58133 9.87781 8.416C9.58981 8.25067 9.26181 8.168 8.89381 8.168C8.52581 8.168 8.19781 8.25067 7.90981 8.416C7.62181 8.58133 7.39515 8.81867 7.22981 9.128C7.06981 9.43733 6.98981 9.79733 6.98981 10.208C6.98981 10.6187 7.06981 10.9813 7.22981 11.296C7.39515 11.6053 7.62181 11.8453 7.90981 12.016C8.19781 12.1813 8.52581 12.264 8.89381 12.264ZM20.8713 7.44L19.2233 13H18.1913L17.0233 8.792L15.7833 13L14.7593 13.008L13.1833 7.44H14.1513L15.3033 11.968L16.5513 7.44H17.5753L18.7353 11.944L19.8953 7.44H20.8713ZM23.5354 8.176V9.808H25.4554V10.552H23.5354V12.256H25.6954V13H22.6234V7.432H25.6954V8.176H23.5354ZM30.7068 13L29.4268 10.776H28.7308V13H27.8188V7.44H29.7388C30.1654 7.44 30.5254 7.51467 30.8188 7.664C31.1174 7.81333 31.3388 8.01333 31.4828 8.264C31.6321 8.51467 31.7068 8.79467 31.7068 9.104C31.7068 9.46667 31.6001 9.79733 31.3868 10.096C31.1788 10.3893 30.8561 10.5893 30.4188 10.696L31.7948 13H30.7068ZM28.7308 10.048H29.7388C30.0801 10.048 30.3361 9.96267 30.5068 9.792C30.6828 9.62133 30.7708 9.392 30.7708 9.104C30.7708 8.816 30.6854 8.592 30.5148 8.432C30.3441 8.26667 30.0854 8.184 29.7388 8.184H28.7308V10.048ZM34.7854 8.176V9.808H36.7054V10.552H34.7854V12.256H36.9454V13H33.8734V7.432H36.9454V8.176H34.7854ZM40.8848 7.44C41.4768 7.44 41.9941 7.55467 42.4368 7.784C42.8848 8.008 43.2288 8.33333 43.4688 8.76C43.7141 9.18133 43.8368 9.67467 43.8368 10.24C43.8368 10.8053 43.7141 11.296 43.4688 11.712C43.2288 12.128 42.8848 12.448 42.4368 12.672C41.9941 12.8907 41.4768 13 40.8848 13H39.0688V7.44H40.8848ZM40.8848 12.256C41.5354 12.256 42.0341 12.08 42.3808 11.728C42.7274 11.376 42.9008 10.88 42.9008 10.24C42.9008 9.59467 42.7274 9.09067 42.3808 8.728C42.0341 8.36533 41.5354 8.184 40.8848 8.184H39.9808V12.256H40.8848ZM51.7948 10.144C52.0934 10.1973 52.3468 10.3547 52.5548 10.616C52.7628 10.8773 52.8668 11.1733 52.8668 11.504C52.8668 11.7867 52.7921 12.0427 52.6428 12.272C52.4988 12.496 52.2881 12.6747 52.0108 12.808C51.7334 12.936 51.4108 13 51.0428 13H48.8188V7.44H50.9388C51.3174 7.44 51.6428 7.504 51.9148 7.632C52.1868 7.76 52.3921 7.93333 52.5308 8.152C52.6694 8.36533 52.7387 8.60533 52.7387 8.872C52.7387 9.192 52.6534 9.45867 52.4828 9.672C52.3121 9.88533 52.0828 10.0427 51.7948 10.144ZM49.7308 9.776H50.8588C51.1574 9.776 51.3894 9.70933 51.5548 9.576C51.7254 9.43733 51.8108 9.24 51.8108 8.984C51.8108 8.73333 51.7254 8.53867 51.5548 8.4C51.3894 8.256 51.1574 8.184 50.8588 8.184H49.7308V9.776ZM50.9628 12.256C51.2721 12.256 51.5148 12.1813 51.6908 12.032C51.8668 11.8827 51.9548 11.6747 51.9548 11.408C51.9548 11.136 51.8614 10.92 51.6748 10.76C51.4881 10.6 51.2401 10.52 50.9308 10.52H49.7308V12.256H50.9628ZM58.9778 7.44L57.1378 10.984V13H56.2258V10.984L54.3778 7.44H55.3938L56.6818 10.168L57.9698 7.44H58.9778Z" fill="white"/>
</svg>
