<svg width="375" height="393" viewBox="0 0 375 393" fill="none" xmlns="http://www.w3.org/2000/svg">
<path opacity="0.42" d="M634.064 219.022C593.2 229.29 518.948 239.136 391.021 132.387C228.225 -3.45959 321.752 -33.7377 161.178 -93.3778M595.929 205.479C555.065 215.747 480.813 225.593 352.886 118.843C190.09 -17.0028 283.616 -47.2809 123.042 -106.921M560.16 193.856C519.296 204.124 445.044 213.97 317.117 107.22C154.321 -28.6258 247.847 -58.9038 87.2732 -118.544M527.467 184.641C486.603 194.909 412.351 204.755 284.424 98.0053C121.628 -37.841 215.155 -68.119 54.5806 -127.759M498.716 178.388C457.852 188.657 383.6 198.502 255.673 91.7529C92.8768 -44.0933 186.404 -74.3714 25.8295 -134.012M474.804 175.616C433.94 185.885 359.688 195.73 231.761 88.981C68.9652 -46.8653 162.492 -77.1434 1.91784 -136.784M456.416 176.636C415.552 186.904 341.3 196.75 213.373 90.0003C50.5768 -45.8459 144.103 -76.124 -16.4705 -135.764M443.69 181.374C402.826 191.643 328.574 201.488 200.647 94.739C37.8508 -41.1073 131.377 -71.3854 -29.1966 -131.026M436.095 189.347C395.231 199.615 320.979 209.461 193.052 102.712C30.2555 -33.1347 123.782 -63.4128 -36.7918 -123.053M432.611 199.824C391.747 210.092 317.495 219.938 189.568 113.189C26.7722 -22.6576 120.299 -52.9357 -40.2752 -112.576M432.05 212.035C391.186 222.303 316.934 232.149 189.007 125.4C26.211 -10.4467 119.738 -40.7248 -40.8363 -100.365M433.295 225.299C392.431 235.568 318.179 245.414 190.252 138.664C27.4555 2.8179 120.982 -27.4602 -39.5919 -87.1003M435.418 239.07C394.554 249.338 320.302 259.184 192.375 152.434C29.5791 16.5881 123.106 -13.69 -37.4682 -73.3302M437.685 252.924C396.821 263.192 322.569 273.038 194.642 166.289C31.8462 30.4424 125.373 0.164344 -35.2012 -59.4758M439.557 266.549C398.693 276.817 324.441 286.663 196.514 179.914C33.718 44.0674 127.245 13.7893 -33.3293 -45.8508M440.622 279.709C399.758 289.977 325.506 299.823 197.579 193.074C34.7829 57.2273 128.31 26.9492 -32.2645 -32.6909M440.6 292.236C399.736 302.504 325.484 312.35 197.557 205.601C34.7609 69.7543 128.288 39.4762 -32.2865 -20.164M439.303 304.014C398.439 314.282 324.187 324.128 196.26 217.379C33.4636 81.5325 126.99 51.2544 -33.5837 -8.38577M436.616 315.045C395.752 325.314 321.5 335.16 193.573 228.41C30.7771 92.5639 124.304 62.2859 -36.2703 2.6457M433.054 325.475C392.19 335.743 317.938 345.589 190.011 238.84C27.2147 102.993 120.741 72.7153 -39.8327 13.0752M428.723 335.443C387.859 345.711 313.607 355.557 185.68 248.808C22.8839 112.961 116.411 82.6832 -44.1635 23.0431M423.524 344.884C382.66 355.152 308.408 364.998 180.481 258.248C17.6848 122.402 111.211 92.124 -49.3626 32.4839M417.325 353.715C376.461 363.984 302.209 373.83 174.282 267.08C11.4855 131.234 105.012 100.956 -55.5619 41.3157M409.964 361.833C369.1 372.101 294.848 381.947 166.921 275.197C4.1251 139.351 97.6517 109.073 -62.9223 49.4329M401.224 369.094C360.36 379.363 286.108 389.208 158.181 282.459C-4.61492 146.613 88.9117 116.335 -71.6623 56.6944M390.814 375.308C349.95 385.576 275.698 395.422 147.771 288.672C-15.0251 152.826 78.5016 122.548 -82.0724 62.9078M378.329 380.201C337.465 390.47 263.213 400.316 135.286 293.566C-27.5103 157.72 66.0164 127.442 -94.5576 67.8016M363.191 383.376C322.327 393.644 248.075 403.49 120.148 296.74C-42.6483 160.894 50.8784 130.616 -109.696 70.9757M344.584 384.246C303.72 394.515 229.468 404.36 101.541 297.611C-61.2551 161.765 32.2716 131.486 -128.302 71.8463M322.105 382.377C281.24 392.646 206.988 402.492 79.0614 295.742C-83.7346 159.896 9.79204 129.618 -150.782 69.9777" stroke="url(#paint0_linear_1_6716)" stroke-width="3.85718"/>
<defs>
<linearGradient id="paint0_linear_1_6716" x1="332.147" y1="357.74" x2="163.733" y2="-136.771" gradientUnits="userSpaceOnUse">
<stop stop-color="white"/>
<stop offset="0.208333" stop-color="white" stop-opacity="0.25"/>
<stop offset="0.786458" stop-color="white" stop-opacity="0.25"/>
<stop offset="1" stop-color="white"/>
</linearGradient>
</defs>
</svg>
