<svg width="70" height="70" viewBox="0 0 70 70" fill="none" xmlns="http://www.w3.org/2000/svg">
<rect width="70" height="70" rx="20" fill="#5F0EE6"/>
<path d="M31.8194 17.8139L27.3193 26.5405L38.1195 17.8139C37.1528 17.28 36.0666 17 34.9623 17C33.858 17 32.7717 17.28 31.805 17.8139H31.8194Z" fill="white"/>
<path d="M23.6523 21.7018L24.1204 31.5156L29.1172 18.5554C28.015 18.5771 26.9362 18.877 25.9809 19.427C25.0255 19.9771 24.2246 20.7595 23.6523 21.7018V21.7018Z" fill="white"/>
<path d="M18.5273 29.161L23.8338 37.4195L21.681 23.6889C20.7625 24.2501 19.9941 25.0259 19.4418 25.9497C18.8617 26.9219 18.5464 28.0291 18.5273 29.161V29.161Z" fill="white"/>
<path d="M17.8139 38.1824L26.5405 42.6825L17.8139 31.8823C17.28 32.849 17 33.9353 17 35.0396C17 36.1439 17.28 37.2302 17.8139 38.1968V38.1824Z" fill="white"/>
<path d="M21.7021 46.3476L31.5159 45.8796L18.5557 40.8827C18.5782 41.9855 18.8791 43.0648 19.4305 44.0202C19.9818 44.9757 20.7657 45.7762 21.7093 46.3476H21.7021Z" fill="white"/>
<path d="M29.1615 51.4738L37.4201 46.1673L23.6895 48.3273C24.2506 49.2458 25.0265 50.0143 25.9503 50.5666C26.9232 51.1441 28.0303 51.4569 29.1615 51.4738V51.4738Z" fill="white"/>
<path d="M38.1829 52.1864L42.683 43.4599L31.8828 52.1864C32.8495 52.7203 33.9358 53.0003 35.0401 53.0003C36.1444 53.0003 37.2306 52.7203 38.1973 52.1864H38.1829Z" fill="white"/>
<path d="M46.3477 48.2991L45.8797 38.4854L40.8828 51.4456C41.9857 51.423 43.065 51.1221 44.0204 50.5708C44.9758 50.0194 45.7764 49.2355 46.3477 48.2919V48.2991Z" fill="white"/>
<path d="M51.4735 40.8402L46.167 32.5817L48.327 46.3123C49.2455 45.7511 50.0139 44.9753 50.5663 44.0515C51.1438 43.0786 51.4566 41.9715 51.4735 40.8402Z" fill="white"/>
<path d="M52.1865 31.819L43.46 27.3189L52.1865 38.1191C52.7204 37.1524 53.0004 36.0661 53.0004 34.9618C53.0004 33.8575 52.7204 32.7713 52.1865 31.8046V31.819Z" fill="white"/>
<path d="M48.2991 23.6525L38.4854 24.1205L51.4456 29.1174C51.423 28.0145 51.1221 26.9352 50.5707 25.9798C50.0194 25.0244 49.2355 24.2238 48.2919 23.6525H48.2991Z" fill="white"/>
<path d="M40.8396 18.5277L32.5811 23.8342L46.3117 21.6742C45.7505 20.7557 44.9747 19.9873 44.0508 19.435C43.078 18.8574 41.9708 18.5446 40.8396 18.5277V18.5277Z" fill="white"/>
</svg>
