<svg width="23" height="23" viewBox="0 0 23 23" fill="none" xmlns="http://www.w3.org/2000/svg">
<path d="M9.46755 0.520004L6.59253 6.09524L13.4926 0.520004C12.875 0.178911 12.181 0 11.4755 0C10.7699 0 10.0759 0.178911 9.45835 0.520004H9.46755Z" fill="white"/>
<path d="M4.25 3.00387L4.549 9.27371L7.74142 0.993652C7.03726 1.00757 6.34801 1.19912 5.73765 1.55054C5.12728 1.90197 4.61557 2.40187 4.25 3.00387Z" fill="white"/>
<path d="M0.975586 7.76946L4.36581 13.0457L2.9904 4.27344C2.4036 4.63195 1.91266 5.12763 1.55979 5.71785C1.18919 6.33895 0.987769 7.0463 0.975586 7.76946Z" fill="white"/>
<path d="M0.520004 13.5331L6.09524 16.4081L0.520004 9.50806C0.178911 10.1256 0 10.8196 0 11.5252C0 12.2307 0.178911 12.9247 0.520004 13.5423V13.5331Z" fill="white"/>
<path d="M3.00387 18.7497L9.27371 18.4507L0.993652 15.2583C1.00805 15.9629 1.20031 16.6524 1.55255 17.2628C1.9048 17.8732 2.40561 18.3847 3.00847 18.7497H3.00387Z" fill="white"/>
<path d="M7.76971 22.0247L13.0459 18.6345L4.27368 20.0145C4.6322 20.6013 5.12787 21.0923 5.71809 21.4451C6.33964 21.8141 7.04696 22.014 7.76971 22.0247Z" fill="white"/>
<path d="M13.5331 22.48L16.4081 16.9048L9.50806 22.48C10.1256 22.8211 10.8196 23 11.5252 23C12.2307 23 12.9247 22.8211 13.5423 22.48H13.5331Z" fill="white"/>
<path d="M18.7497 19.9964L18.4507 13.7266L15.2583 22.0066C15.9629 21.9922 16.6524 21.8 17.2628 21.4477C17.8732 21.0955 18.3847 20.5947 18.7497 19.9918V19.9964Z" fill="white"/>
<path d="M22.0243 15.2311L18.634 9.95483L20.014 18.7271C20.6008 18.3686 21.0918 17.8729 21.4447 17.2827C21.8136 16.6611 22.0135 15.9538 22.0243 15.2311Z" fill="white"/>
<path d="M22.4798 9.46755L16.9045 6.59253L22.4798 13.4926C22.8209 12.875 22.9998 12.181 22.9998 11.4755C22.9998 10.7699 22.8209 10.0759 22.4798 9.45835V9.46755Z" fill="white"/>
<path d="M19.9962 4.25024L13.7263 4.54925L22.0064 7.74167C21.992 7.03707 21.7997 6.34754 21.4475 5.73713C21.0952 5.12673 20.5944 4.61526 19.9916 4.25024H19.9962Z" fill="white"/>
<path d="M15.2306 0.976074L9.95435 4.3663L18.7266 2.98629C18.3681 2.39949 17.8724 1.90854 17.2822 1.55568C16.6606 1.18669 15.9533 0.986863 15.2306 0.976074Z" fill="white"/>
</svg>
