<svg width="22" height="20" viewBox="0 0 22 20" fill="none" xmlns="http://www.w3.org/2000/svg">
<path fill-rule="evenodd" clip-rule="evenodd" d="M14.2865 1.33259C15.3784 1.77604 15.7124 3.32039 16.1589 3.81679C16.6054 4.31319 17.2443 4.48197 17.5978 4.48197C19.4768 4.48197 21 6.03625 21 7.95235V14.3449C21 16.9151 18.9568 19 16.4378 19H5.56216C3.04216 19 1 16.9151 1 14.3449V7.95235C1 6.03625 2.52324 4.48197 4.40216 4.48197C4.75459 4.48197 5.39351 4.31319 5.84108 3.81679C6.28757 3.32039 6.62054 1.77604 7.71243 1.33259C8.80541 0.889137 13.1946 0.889137 14.2865 1.33259Z" stroke="#1A1921" stroke-width="2" stroke-linecap="round" stroke-linejoin="round"/>
<path d="M16.9419 7.34306H16.9517" stroke="#1A1921" stroke-width="2" stroke-linecap="round" stroke-linejoin="round"/>
<path fill-rule="evenodd" clip-rule="evenodd" d="M14.436 11.3452C14.436 9.4081 12.8976 7.83838 10.9993 7.83838C9.10088 7.83838 7.5625 9.4081 7.5625 11.3452C7.5625 13.2822 9.10088 14.852 10.9993 14.852C12.8976 14.852 14.436 13.2822 14.436 11.3452Z" stroke="#1A1921" stroke-width="2" stroke-linecap="round" stroke-linejoin="round"/>
</svg>
