<svg viewBox="0 0 343 142" fill="none" xmlns="http://www.w3.org/2000/svg">
<rect x="5.99963" y="42" width="323" height="100" rx="14" transform="rotate(-6 5.99963 42)" fill="#5F0EE6"/>
<g clip-path="url(#clip0_1_3)">
<path d="M30.6779 121.247L30.6845 121.309C30.7591 121.934 31.0767 122.505 31.5697 122.9C32.0627 123.296 32.6923 123.485 33.3246 123.428L33.356 123.424C33.9993 123.357 34.5895 123.039 34.9969 122.54C35.4044 122.041 35.5956 121.403 35.5286 120.765C35.4616 120.128 35.1418 119.543 34.6396 119.14C34.1374 118.737 33.4938 118.548 32.8506 118.616L32.8335 118.618C32.1989 118.689 31.6174 119.004 31.2142 119.496C30.8111 119.988 30.6185 120.616 30.6779 121.247ZM33.2035 121.973C32.958 121.986 32.7172 121.905 32.5306 121.746C32.3441 121.588 32.2259 121.365 32.2004 121.122C32.175 120.88 32.2441 120.637 32.3937 120.443C32.5433 120.25 32.7619 120.12 33.0046 120.081L33.0274 120.079C33.2767 120.056 33.5248 120.131 33.7194 120.286C33.9139 120.442 34.0396 120.667 34.07 120.913L34.0727 120.938C34.0911 121.184 34.0132 121.427 33.8553 121.617C33.6974 121.808 33.4717 121.93 33.2251 121.96L33.2035 121.973Z" fill="white"/>
<path d="M28.3367 119.608L28.3442 119.679C28.3868 119.89 28.5059 120.077 28.679 120.207C28.8521 120.336 29.0671 120.398 29.2834 120.381C29.3989 120.371 29.5113 120.338 29.6138 120.284C29.7163 120.23 29.8068 120.156 29.8799 120.067C29.9529 119.977 30.007 119.874 30.0389 119.764C30.0708 119.653 30.0799 119.537 30.0655 119.423C30.0655 119.423 30.0637 119.406 30.0629 119.398C30.062 119.389 30.0605 119.375 30.0596 119.367C30.0118 119.166 29.9769 118.962 29.9551 118.757C29.9462 118.672 29.9373 118.588 29.9284 118.503C29.9371 117.378 30.6654 116.732 31.0657 116.341C31.1982 116.224 31.3369 116.114 31.4811 116.012C32.3034 115.408 33.2952 115.073 34.3175 115.056C35.3398 115.038 36.3416 115.338 37.1826 115.913L37.1231 115.813L37.0726 115.744C36.573 115.092 35.9151 114.576 35.16 114.244C34.405 113.912 33.5771 113.774 32.7534 113.844L32.5594 113.865C31.2838 114.021 30.1204 114.668 29.3194 115.666C28.5184 116.664 28.1439 117.933 28.2765 119.2C28.2911 119.338 28.3062 119.482 28.3362 119.602L28.3367 119.608Z" fill="white"/>
<path d="M31.6677 125.638L31.739 125.631C31.9518 125.588 32.1415 125.47 32.2723 125.298C32.4031 125.126 32.4659 124.913 32.4488 124.698C32.4391 124.584 32.4062 124.472 32.352 124.371C32.2978 124.269 32.2234 124.18 32.1334 124.107C32.0433 124.035 31.9395 123.982 31.828 123.95C31.7165 123.919 31.5998 123.91 31.4847 123.924L31.4276 123.93C31.226 123.978 31.0215 124.013 30.8155 124.035L30.5558 124.062C29.4214 124.055 28.7719 123.337 28.378 122.938C28.2593 122.808 28.1485 122.67 28.0463 122.527C27.4394 121.712 27.1051 120.729 27.0901 119.715C27.0751 118.701 27.3802 117.708 27.9627 116.873L27.8621 116.932L27.7924 116.983C27.1338 117.479 26.6122 118.132 26.2759 118.882C25.9395 119.631 25.7995 120.452 25.8687 121.269C25.8685 121.264 25.868 121.259 25.8672 121.255C25.8714 121.294 25.8758 121.337 25.88 121.376L25.8889 121.461C26.0445 122.726 26.6947 123.878 27.6995 124.67C28.7042 125.463 29.9834 125.832 31.2615 125.698C31.4013 125.683 31.5234 125.665 31.6677 125.638Z" fill="white"/>
<path d="M37.7608 122.317L37.7533 122.247C37.7108 122.036 37.5917 121.848 37.4186 121.719C37.2455 121.589 37.0304 121.527 36.8141 121.545C36.6986 121.555 36.5862 121.587 36.4837 121.641C36.3812 121.695 36.2907 121.769 36.2177 121.859C36.1446 121.948 36.0905 122.051 36.0586 122.162C36.0267 122.272 36.0176 122.388 36.032 122.502L36.0347 122.527C36.0347 122.527 36.037 122.55 36.0379 122.559C36.0855 122.758 36.1203 122.961 36.1421 123.165C36.1513 123.253 36.1602 123.338 36.1691 123.423C36.1604 124.548 35.4321 125.193 35.0318 125.584C34.9001 125.702 34.7613 125.812 34.6164 125.914C33.7941 126.518 32.8023 126.852 31.78 126.87C30.7577 126.887 29.7559 126.588 28.9149 126.013L28.9858 126.111L29.0364 126.18C29.5347 126.831 30.1907 127.346 30.9436 127.678C31.6966 128.01 32.5222 128.149 33.3441 128.081L33.5381 128.061C34.8137 127.904 35.9771 127.257 36.7781 126.26C37.5791 125.262 37.9536 123.993 37.821 122.726C37.8064 122.587 37.7913 122.443 37.7614 122.323L37.7608 122.317Z" fill="white"/>
<path d="M40.2087 120.465C40.0531 119.201 39.403 118.048 38.3982 117.256C37.3934 116.463 36.1143 116.094 34.8362 116.228C34.6992 116.243 34.5508 116.258 34.4299 116.288L34.3586 116.296C34.1458 116.338 33.9561 116.457 33.8253 116.628C33.6945 116.8 33.6317 117.014 33.6489 117.228C33.6585 117.343 33.6915 117.454 33.7457 117.556C33.7999 117.657 33.8742 117.747 33.9643 117.819C34.0543 117.891 34.1582 117.945 34.2696 117.976C34.3811 118.008 34.4979 118.016 34.6129 118.002L34.67 117.996C34.8716 117.948 35.0761 117.913 35.2821 117.891L35.5418 117.864C36.6762 117.871 37.3261 118.592 37.7196 118.988C37.8384 119.118 37.9491 119.256 38.0514 119.399C38.6537 120.213 38.985 121.193 38.9992 122.204C39.0133 123.214 38.7096 124.204 38.1303 125.036L38.2297 124.966L38.2994 124.916C38.9548 124.422 39.475 123.774 39.8121 123.03C40.1493 122.286 40.2926 121.47 40.2289 120.658C40.2291 120.662 40.2296 120.667 40.2304 120.672C40.2262 120.632 40.2218 120.59 40.2176 120.55L40.2087 120.465Z" fill="white"/>
</g>
<path d="M48.8101 123.569L47.8161 114.111L49.6025 113.923L50.0609 118.285L53.2018 113.545L55.3823 113.316L51.9186 118.395L56.626 122.748L54.3666 122.985L50.1438 119.073L50.5966 123.381L48.8101 123.569ZM60.1014 122.581C59.3877 122.656 58.7448 122.562 58.1726 122.299C57.6004 122.036 57.1338 121.641 56.7728 121.112C56.4157 120.578 56.1987 119.946 56.1218 119.215C56.0441 118.475 56.129 117.808 56.3766 117.216C56.6237 116.619 57 116.134 57.5054 115.762C58.0109 115.39 58.6139 115.168 59.3145 115.094C60.0282 115.019 60.6711 115.113 61.2433 115.376C61.8198 115.639 62.2888 116.036 62.6503 116.57C63.0114 117.098 63.2303 117.728 63.3072 118.459C63.3845 119.195 63.2996 119.861 63.0524 120.458C62.8092 121.051 62.4329 121.535 61.9236 121.912C61.4181 122.284 60.8108 122.507 60.1014 122.581ZM59.9261 120.913C60.4997 120.853 60.9063 120.615 61.1461 120.201C61.3897 119.781 61.4796 119.267 61.4156 118.658C61.3493 118.028 61.1519 117.539 60.8233 117.193C60.4991 116.847 60.0546 116.703 59.4898 116.762C59.1001 116.803 58.7897 116.924 58.5585 117.126C58.3273 117.327 58.1668 117.59 58.0768 117.913C57.9913 118.237 57.9701 118.604 58.0134 119.016C58.0801 119.651 58.2756 120.142 58.5998 120.488C58.9279 120.83 59.37 120.972 59.9261 120.913ZM64.9798 121.87L63.9988 112.41L65.8116 112.22L66.4191 118L68.464 114.332L70.6708 114.1L68.4821 117.916L71.5871 121.175L69.2621 121.419L66.4467 118.262L66.8057 121.678L64.9798 121.87ZM74.7718 121.053C74.2157 121.111 73.7526 121.065 73.3825 120.913C73.0124 120.762 72.7137 120.552 72.4863 120.284C72.2633 120.015 72.0938 119.73 71.9779 119.427C71.8616 119.121 71.7811 118.839 71.7364 118.583C71.6918 118.326 71.6632 118.139 71.6508 118.021L71.2325 114.041L73.0452 113.85L73.3973 117.2C73.4143 117.362 73.4449 117.569 73.4891 117.821C73.5329 118.069 73.6141 118.315 73.7327 118.559C73.8514 118.803 74.0226 119 74.2463 119.149C74.4744 119.298 74.779 119.352 75.1599 119.312C75.3131 119.296 75.4748 119.255 75.6449 119.188C75.815 119.121 75.9695 119.012 76.1085 118.86C76.247 118.704 76.3504 118.487 76.4187 118.21C76.4908 117.928 76.5039 117.568 76.4579 117.13L77.5336 117.509C77.5925 118.069 77.5339 118.607 77.3577 119.121C77.1816 119.635 76.8795 120.068 76.4515 120.418C76.0279 120.768 75.468 120.98 74.7718 121.053ZM77.0485 120.601L76.8013 118.25L76.578 118.273L76.0796 113.531L77.8792 113.342L78.6248 120.435L77.0485 120.601ZM82.3201 120.246C81.8122 120.3 81.3708 120.249 80.9959 120.093C80.6249 119.933 80.3304 119.701 80.1124 119.396C79.8984 119.086 79.7707 118.734 79.7293 118.34C79.6947 118.012 79.7136 117.707 79.7857 117.425C79.8579 117.143 79.9948 116.887 80.1965 116.658C80.4021 116.424 80.688 116.217 81.0542 116.036C81.3068 115.912 81.6109 115.794 81.9665 115.681C82.3221 115.569 82.7264 115.456 83.1792 115.342C83.6316 115.223 84.1293 115.093 84.6723 114.952L84.0659 115.375C84.0217 114.954 83.8885 114.656 83.6664 114.48C83.4443 114.304 83.0968 114.241 82.6239 114.291C82.3612 114.319 82.0942 114.411 81.8229 114.568C81.5516 114.725 81.3761 114.971 81.2963 115.307L79.6268 114.965C79.7446 114.359 80.0316 113.846 80.4877 113.426C80.9439 113.007 81.5989 112.752 82.4527 112.662C83.0788 112.596 83.645 112.634 84.1513 112.776C84.6576 112.917 85.0604 113.211 85.3597 113.658C85.5274 113.906 85.6382 114.16 85.6921 114.42C85.746 114.68 85.7899 114.972 85.824 115.296L86.2796 119.631L84.7164 119.795L84.5632 118.337L84.8182 118.616C84.5225 119.129 84.1845 119.515 83.8042 119.771C83.4278 120.024 82.9331 120.182 82.3201 120.246ZM82.5533 118.801C82.8817 118.766 83.1516 118.68 83.363 118.543C83.5782 118.401 83.7437 118.248 83.8594 118.086C83.9795 117.922 84.0583 117.788 84.0959 117.682C84.1676 117.48 84.1967 117.251 84.1831 116.996C84.1735 116.736 84.1597 116.52 84.1418 116.349L84.681 116.425C84.1604 116.569 83.7391 116.688 83.4172 116.784C83.0947 116.876 82.8354 116.956 82.639 117.025C82.4427 117.095 82.2708 117.166 82.1236 117.239C81.9558 117.327 81.8215 117.419 81.7208 117.514C81.624 117.603 81.5544 117.699 81.512 117.801C81.4739 117.902 81.4611 118.012 81.4736 118.131C81.4906 118.293 81.5447 118.429 81.636 118.538C81.7311 118.644 81.8564 118.719 82.0117 118.765C82.167 118.81 82.3476 118.822 82.5533 118.801Z" fill="white"/>
<rect width="343" height="100" rx="14" fill="#1A1921"/>
  <mask id="mask0_331_28066" style="mask-type:alpha" maskUnits="userSpaceOnUse" x="0" y="0" width="343" height="100">
  <rect width="343" height="100" rx="14" fill="url(#paint0_linear_331_28066)"/>
  </mask>
  <g mask="url(#mask0_331_28066)">
  <path opacity="0.42" d="M507.926 -70.4993C489.272 -59.1276 454.02 -42.8282 374.252 -76.004C272.741 -118.223 314.393 -147.605 225.707 -152.431M486.96 -71.338C468.305 -59.9663 433.053 -43.6669 353.285 -76.8427C251.774 -119.061 293.426 -148.443 204.74 -153.27M467.46 -71.59C448.805 -60.2182 413.554 -43.9188 333.785 -77.0946C232.274 -119.313 273.926 -148.695 185.24 -153.521M449.854 -71.123C431.199 -59.7512 395.948 -43.4519 316.179 -76.6277C214.668 -118.846 256.32 -148.228 167.634 -153.055M434.656 -69.7953C416.001 -58.4236 380.749 -42.1242 300.981 -75.3C199.47 -117.519 241.122 -146.901 152.436 -151.727M422.389 -67.489C403.734 -56.1172 368.483 -39.8179 288.714 -72.9936C187.203 -115.212 228.855 -144.594 140.169 -149.421M413.441 -64.1551C394.786 -52.7833 359.534 -36.484 279.766 -69.6597C178.255 -111.878 219.907 -141.26 131.221 -146.087M407.868 -59.8507C389.214 -48.4789 353.962 -32.1796 274.193 -65.3554C172.682 -107.574 214.335 -136.956 125.649 -141.782M405.334 -54.7344C386.68 -43.3627 351.428 -27.0633 271.659 -60.2391C170.148 -102.458 211.8 -131.84 123.114 -136.666M405.221 -49.0106C386.567 -37.6389 351.315 -21.3395 271.546 -54.5153C170.035 -96.7338 211.687 -126.116 123.001 -130.942M406.822 -42.8779C388.168 -31.5062 352.916 -15.2068 273.147 -48.3826C171.636 -90.6011 213.288 -119.983 124.602 -124.809M409.479 -36.5013C390.825 -25.1295 355.573 -8.83015 275.804 -42.0059C174.293 -84.2245 215.945 -113.607 127.259 -118.433M412.649 -30.0096C393.995 -18.6378 358.743 -2.33845 278.974 -35.5142C177.463 -77.7328 219.116 -107.115 130.43 -111.941M415.903 -23.4982C397.249 -12.1265 361.997 4.17289 282.229 -29.0029C180.717 -71.2214 222.37 -100.604 133.684 -105.43M418.927 -17.0397C400.272 -5.66791 365.02 10.6315 285.252 -22.5443C183.741 -64.7629 225.393 -94.1451 136.707 -98.9712M421.479 -10.6872C402.824 0.684531 367.572 16.9839 287.804 -16.1919C186.293 -58.4104 227.945 -87.7926 139.259 -92.6187M423.395 -4.48098C404.741 6.89076 369.489 23.1901 289.72 -9.98566C188.209 -52.2042 229.861 -81.5864 141.175 -86.4125M424.565 1.55071C405.91 12.9225 370.658 29.2218 290.89 -3.95395C189.379 -46.1725 231.031 -75.5547 142.345 -80.3808M424.932 7.42642C406.277 18.7982 371.025 35.0975 291.257 1.92174C189.746 -40.2968 231.398 -69.679 142.712 -74.5051M424.772 13.1388C406.118 24.5105 370.866 40.8099 291.098 7.6341C189.587 -34.5844 231.239 -63.9666 142.553 -68.7928M424.162 18.7408C405.507 30.1126 370.255 46.4119 290.487 13.2362C188.976 -28.9824 230.628 -58.3646 141.942 -63.1907M423.04 24.2155C404.385 35.5872 369.133 51.8866 289.365 18.7108C187.854 -23.5078 229.506 -52.89 140.82 -57.7161M421.329 29.5424C402.674 40.9142 367.423 57.2135 287.654 24.0377C186.143 -18.1808 227.795 -47.563 139.109 -52.3891M418.933 34.6942C400.279 46.0659 365.027 62.3653 285.258 29.1895C183.747 -13.029 225.4 -42.4112 136.714 -47.2374M415.723 39.6345C397.068 51.0063 361.816 67.3056 282.048 34.1298C180.537 -8.0887 222.189 -37.4709 133.503 -42.297M411.524 44.3128C392.87 55.6845 357.618 71.9839 277.849 38.8081C176.338 -3.41041 217.99 -32.7926 129.304 -37.6187M406.095 48.6569C387.44 60.0287 352.188 76.3281 272.42 43.1523C170.909 0.93375 212.561 -28.4485 123.875 -33.2746M399.087 52.5577C380.433 63.9295 345.181 80.2288 265.413 47.053C163.901 4.83452 205.554 -24.5477 116.868 -29.3738M390.008 55.8516C371.354 67.2233 336.102 83.5227 256.333 50.3469C154.822 8.1284 196.474 -21.2538 107.788 -26.0799M378.59 58.3849C359.935 69.7567 324.683 86.0561 244.915 52.8803C143.404 10.6617 185.056 -18.7205 96.3698 -23.5466" stroke="url(#paint1_linear_331_28066)" stroke-width="2"/>
  </g>
  <defs>
  <linearGradient id="paint0_linear_331_28066" x1="171.5" y1="0" x2="171.5" y2="100" gradientUnits="userSpaceOnUse">
  <stop stop-color="#CD36FC"/>
  <stop offset="1" stop-color="#5E49E2"/>
  </linearGradient>
  <linearGradient id="paint1_linear_331_28066" x1="379.772" y1="44.6403" x2="220.296" y2="-174.311" gradientUnits="userSpaceOnUse">
  <stop stop-color="white"/>
  <stop offset="0.208333" stop-color="white" stop-opacity="0.25"/>
  <stop offset="0.786458" stop-color="white" stop-opacity="0.25"/>
  <stop offset="1" stop-color="white"/>
</linearGradient>
<clipPath id="clip0_1_3">
<rect width="14.345" height="14.2208" fill="white" transform="translate(25.1723 114.642) rotate(-6)"/>
</clipPath>
</defs>
</svg>
