<svg width="22" height="22" viewBox="0 0 22 22" fill="none" xmlns="http://www.w3.org/2000/svg">
<path fill-rule="evenodd" clip-rule="evenodd" d="M21 6.58157V15.4173C21 18.6911 18.9523 21 15.6804 21H6.30878C3.03684 21 1 18.6911 1 15.4173V6.58157C1 3.30786 3.04767 1 6.30878 1H15.6804C18.9523 1 21 3.30786 21 6.58157Z" stroke="#1A1921" stroke-width="2" stroke-linecap="round" stroke-linejoin="round"/>
<path d="M3.7417 15.8302L5.39717 14.0816C5.97247 13.4713 6.9313 13.4421 7.54235 14.0166C7.56077 14.035 8.55752 15.0486 8.55752 15.0486C9.15882 15.661 10.1415 15.6708 10.7536 15.0703C10.7937 15.0312 13.2823 12.0112 13.2823 12.0112C13.9237 11.2318 15.0754 11.1201 15.8555 11.7629C15.9075 11.8063 18.2585 14.2204 18.2585 14.2204" stroke="#1A1921" stroke-width="2" stroke-linecap="round" stroke-linejoin="round"/>
<path fill-rule="evenodd" clip-rule="evenodd" d="M9.1942 7.91918C9.1942 8.96958 8.34372 9.82053 7.29388 9.82053C6.24404 9.82053 5.39355 8.96958 5.39355 7.91918C5.39355 6.86877 6.24404 6.01782 7.29388 6.01782C8.34372 6.01891 9.1942 6.86877 9.1942 7.91918Z" stroke="#1A1921" stroke-width="2" stroke-linecap="round" stroke-linejoin="round"/>
</svg>
