<svg width="23" height="23" viewBox="0 0 23 23" fill="none" xmlns="http://www.w3.org/2000/svg">
<path d="M9.46779 0.520004L6.59277 6.09524L13.4928 0.520004C12.8752 0.178911 12.1812 0 11.4757 0C10.7702 0 10.0762 0.178911 9.45859 0.520004H9.46779Z" fill="#5F0EE6"/>
<path d="M4.25 3.00387L4.549 9.27371L7.74142 0.993652C7.03726 1.00757 6.34801 1.19912 5.73765 1.55054C5.12728 1.90197 4.61557 2.40187 4.25 3.00387Z" fill="#5F0EE6"/>
<path d="M0.975586 7.76946L4.36581 13.0457L2.9904 4.27344C2.4036 4.63195 1.91266 5.12763 1.55979 5.71785C1.18919 6.33895 0.987769 7.0463 0.975586 7.76946Z" fill="#5F0EE6"/>
<path d="M0.520004 13.5331L6.09524 16.4081L0.520004 9.50806C0.178911 10.1256 0 10.8196 0 11.5252C0 12.2307 0.178911 12.9247 0.520004 13.5423V13.5331Z" fill="#5F0EE6"/>
<path d="M3.00338 18.7497L9.27322 18.4507L0.993164 15.2583C1.00756 15.9629 1.19982 16.6524 1.55206 17.2628C1.90431 17.8732 2.40513 18.3847 3.00798 18.7497H3.00338Z" fill="#5F0EE6"/>
<path d="M7.76946 22.0247L13.0457 18.6345L4.27344 20.0145C4.63195 20.6013 5.12763 21.0923 5.71785 21.4451C6.3394 21.8141 7.04672 22.014 7.76946 22.0247Z" fill="#5F0EE6"/>
<path d="M13.5328 22.48L16.4079 16.9048L9.50781 22.48C10.1254 22.8211 10.8194 23 11.5249 23C12.2304 23 12.9244 22.8211 13.542 22.48H13.5328Z" fill="#5F0EE6"/>
<path d="M18.7492 19.9964L18.4502 13.7266L15.2578 22.0066C15.9624 21.9922 16.6519 21.8 17.2623 21.4477C17.8727 21.0955 18.3842 20.5947 18.7492 19.9918V19.9964Z" fill="#5F0EE6"/>
<path d="M22.024 15.2311L18.6338 9.95483L20.0138 18.7271C20.6006 18.3686 21.0915 17.8729 21.4444 17.2827C21.8134 16.6611 22.0132 15.9538 22.024 15.2311Z" fill="#5F0EE6"/>
<path d="M22.4795 9.46755L16.9043 6.59253L22.4795 13.4926C22.8206 12.875 22.9995 12.181 22.9995 11.4755C22.9995 10.7699 22.8206 10.0759 22.4795 9.45835V9.46755Z" fill="#5F0EE6"/>
<path d="M19.9964 4.25024L13.7266 4.54925L22.0066 7.74167C21.9922 7.03707 21.8 6.34754 21.4477 5.73713C21.0955 5.12673 20.5947 4.61526 19.9918 4.25024H19.9964Z" fill="#5F0EE6"/>
<path d="M15.2303 0.976074L9.9541 4.3663L18.7264 2.98629C18.3678 2.39949 17.8722 1.90854 17.282 1.55568C16.6604 1.18669 15.9531 0.986863 15.2303 0.976074Z" fill="#5F0EE6"/>
</svg>
