<svg width="56" height="56" viewBox="0 0 56 56" fill="none" xmlns="http://www.w3.org/2000/svg">
<path d="M27.9978 56C43.4605 56 55.9956 43.464 55.9956 28C55.9956 12.536 43.4605 0 27.9978 0C12.535 0 0 12.536 0 28C0 43.464 12.535 56 27.9978 56Z" fill="#F0F1F5"/>
<path d="M28 30C30.2091 30 32 28.2091 32 26C32 23.7909 30.2091 22 28 22C25.7909 22 24 23.7909 24 26C24 28.2091 25.7909 30 28 30Z" stroke="#616D87" stroke-width="2" stroke-linecap="round" stroke-linejoin="round"/>
<path d="M38 26C38 35 28 42 28 42C28 42 18 35 18 26C18 23.3478 19.0536 20.8043 20.9289 18.9289C22.8043 17.0536 25.3478 16 28 16C30.6522 16 33.1957 17.0536 35.0711 18.9289C36.9464 20.8043 38 23.3478 38 26V26Z" stroke="#616D87" stroke-width="2" stroke-linecap="round" stroke-linejoin="round"/>
</svg>
