<svg width="53" height="52" viewBox="0 0 53 52" fill="none" xmlns="http://www.w3.org/2000/svg">
<path d="M49.6758 42.3255C49.17 42.8281 48.7907 43.3307 48.2849 43.7077C42.595 48.9853 35.0085 52.1266 26.5368 52.1266C19.8354 52.1266 13.5132 50.1162 8.32909 46.4721C6.81178 45.4669 5.42092 44.2103 4.15649 42.9538C4.78871 42.0742 6.05313 41.4459 8.58198 40.4407L9.59352 40.0637C11.4902 39.3098 14.1454 38.3045 17.5594 36.9223C18.0652 36.671 18.5709 36.4197 18.8238 35.917C18.9503 35.6657 19.2031 35.4144 19.2031 35.1631C19.456 34.7861 19.456 34.2835 19.456 33.7809V27.3724C19.3296 27.2468 19.3296 27.1211 19.2031 26.9955C18.6974 26.1159 18.318 25.2363 18.1916 24.2311L17.6858 23.9797C16.0421 24.3567 16.1685 22.5975 15.7892 19.2048C15.6628 17.8226 15.7892 17.5713 16.4214 17.32L16.9272 16.566C15.6628 13.8016 15.157 11.5398 15.157 9.52932C15.157 6.38792 16.5479 4.25178 18.4445 3.24653C17.5594 1.23604 17.433 0.356445 17.433 0.356445C17.433 0.356445 24.1344 1.48735 26.4104 0.984724C29.3185 0.356445 33.8705 1.11038 35.5142 5.00571C35.8935 5.13137 36.1464 5.25702 36.5258 5.38268C38.6753 6.51358 39.4339 8.02145 39.6868 9.65498C40.0662 12.6707 38.4224 15.9378 38.0431 17.32C38.0431 17.32 38.0431 17.4456 38.1695 17.4456C38.6753 17.697 38.8017 18.0739 38.5488 19.3305C38.1695 22.5975 38.296 24.4824 36.6522 24.1054L35.1349 26.6185C35.1349 26.8698 35.0085 26.9955 35.0085 27.2468C35.0085 27.7494 35.0085 28.629 35.0085 33.9066C35.0085 34.0322 35.0085 34.2835 35.0085 34.4092C35.0085 34.9118 35.2613 35.2888 35.5142 35.6657C35.6407 35.7914 35.7671 35.917 35.8935 36.0427C36.2729 36.4197 36.6522 36.671 37.158 36.9223C40.9512 38.5558 43.733 39.5611 45.7561 40.315C47.6527 41.1946 48.9171 41.8229 49.6758 42.3255Z" fill="#EAEEF9"/>
<path d="M38.6721 19.3301C38.2928 22.5972 38.4193 24.482 36.7755 24.105L35.2582 26.6182C35.2582 26.8695 35.1318 26.9951 35.1318 27.2464C35.1318 27.7491 35.1318 28.6287 35.1318 33.9062C35.1318 34.0319 35.1318 34.2832 35.1318 34.4088H27.7981V5.38232H36.6491C38.7986 6.51323 39.5572 8.0211 39.8101 9.65462C40.1895 12.6704 38.5457 15.9374 38.1664 17.3196C38.1664 17.3196 38.1664 17.4453 38.2928 17.4453C38.6721 17.6966 38.7986 18.0736 38.6721 19.3301Z" fill="#E3E7F5"/>
<path d="M52.7094 51.7491C47.0195 57.0266 35.4152 52.8904 26.9435 52.8904C20.2421 52.8904 5.79924 57.5293 0.615103 54.0109C-0.396437 53.257 0.867988 50.3669 1.24732 49.4873C1.87953 47.7281 2.51174 45.9689 3.39684 44.3354C5.29347 40.6914 14.018 38.9322 17.5584 37.0474C17.5584 37.0474 17.5584 37.0474 17.6848 37.0474C22.4896 43.7071 32.4786 43.7071 37.2834 37.173H37.4099C49.169 41.9479 49.9277 41.3197 51.445 45.7176C51.6979 46.4716 53.2152 51.2465 52.7094 51.7491Z" fill="#5F0EE6"/>
<path d="M38.0431 17.32C38.1696 16.566 37.7902 15.5608 37.5374 14.8069C37.5374 14.6812 37.4109 14.5556 37.4109 14.4299C36.1465 11.9168 33.2383 10.7859 30.583 10.6602C23.6287 10.2833 22.9965 11.6655 20.7205 9.65498C21.3527 10.6602 21.4792 12.2938 20.4676 14.3042C19.709 15.6865 18.3181 16.3147 17.0537 16.6917C13.8926 9.52932 15.4099 5.00571 18.571 3.37219C17.5594 1.23604 17.433 0.356445 17.433 0.356445C17.433 0.356445 24.1344 1.48735 26.4104 0.984724C29.3186 0.356445 33.8705 1.11038 35.5143 5.00571C38.296 6.13661 39.434 7.89579 39.6869 9.78063C40.1926 12.7964 38.4224 16.0634 38.0431 17.32Z" fill="#1C3754"/>
<path d="M19.5815 34.033V27.6245C19.4551 27.4989 19.3286 27.3732 19.3286 27.2476V26.8706C19.7079 27.4989 20.0873 28.0015 20.7195 28.3785L25.7772 31.8968C26.9152 32.9021 28.6854 32.9021 29.8233 31.8968L34.5017 27.6245C34.6281 27.4989 34.881 27.3732 35.0075 27.1219C35.0075 27.6245 35.0075 28.5041 35.0075 33.7817C35.0075 34.1586 35.0075 34.41 35.1339 34.6613H19.4551C19.5815 34.6613 19.5815 34.2843 19.5815 34.033Z" fill="url(#paint0_linear_0_1)"/>
<defs>
<linearGradient id="paint0_linear_0_1" x1="27.2554" y1="34.9522" x2="27.2554" y2="30.4754" gradientUnits="userSpaceOnUse">
<stop stop-color="#EAEEF9"/>
<stop offset="0.9913" stop-color="#CED5E6"/>
</linearGradient>
</defs>
</svg>
