<svg width="120" height="120" viewBox="0 0 120 120" fill="none" xmlns="http://www.w3.org/2000/svg">
<path d="M49.3967 2.71309L34.3965 31.8015L70.3971 2.71309C67.1748 0.933456 63.5539 0 59.8729 0C56.1919 0 52.571 0.933456 49.3487 2.71309H49.3967Z" fill="white"/>
<path d="M22.1748 15.6727L23.7348 48.3852L40.3911 5.18451C36.7172 5.25711 33.1211 6.25654 29.9365 8.09006C26.752 9.92359 24.0822 12.5318 22.1748 15.6727Z" fill="white"/>
<path d="M5.08984 40.5366L22.7781 68.0651L15.602 22.2963C12.5404 24.1669 9.97895 26.753 8.13789 29.8324C6.20431 33.073 5.15341 36.7636 5.08984 40.5366Z" fill="white"/>
<path d="M2.71309 70.6081L31.8015 85.6084L2.71309 49.6078C0.933456 52.83 0 56.4509 0 60.132C0 63.813 0.933456 67.4339 2.71309 70.6561V70.6081Z" fill="white"/>
<path d="M15.6718 97.8252L48.3843 96.2652L5.18359 79.6089C5.25872 83.2851 6.26179 86.8827 8.09962 90.0675C9.93746 93.2522 12.5504 95.9207 15.6958 97.8252H15.6718Z" fill="white"/>
<path d="M40.5381 114.913L68.0666 97.2243L22.2979 104.424C24.1684 107.486 26.7546 110.047 29.834 111.889C33.0769 113.814 36.7673 114.856 40.5381 114.913Z" fill="white"/>
<path d="M70.6087 117.288L85.609 88.1995L49.6084 117.288C52.8306 119.068 56.4515 120.001 60.1326 120.001C63.8136 120.001 67.4345 119.068 70.6567 117.288H70.6087Z" fill="white"/>
<path d="M97.8257 104.33L96.2656 71.6179L79.6094 114.819C83.2856 114.743 86.8832 113.74 90.0679 111.903C93.2526 110.065 95.9212 107.452 97.8257 104.306V104.33Z" fill="white"/>
<path d="M114.911 79.4674L97.2227 51.9389L104.423 97.7077C107.484 95.8371 110.046 93.251 111.887 90.1715C113.812 86.9287 114.855 83.2382 114.911 79.4674Z" fill="white"/>
<path d="M117.287 49.3966L88.1982 34.3964L117.287 70.3969C119.066 67.1747 120 63.5538 120 59.8728C120 56.1917 119.066 52.5708 117.287 49.3486V49.3966Z" fill="white"/>
<path d="M104.33 22.1749L71.6172 23.735L114.818 40.3912C114.743 36.715 113.74 33.1174 111.902 29.9327C110.064 26.748 107.451 24.0794 104.306 22.1749H104.33Z" fill="white"/>
<path d="M79.464 5.09247L51.9355 22.7808L97.7043 15.5806C95.8338 12.519 93.2476 9.95757 90.1682 8.11652C86.9253 6.19134 83.2349 5.14876 79.464 5.09247Z" fill="white"/>
</svg>
