<svg width="22" height="25" viewBox="0 0 22 25" fill="none" xmlns="http://www.w3.org/2000/svg">
<path d="M19.2093 24H1.95833C1.70417 24 1.46041 23.899 1.28069 23.7193C1.10097 23.5396 1 23.2958 1 23.0417V1.95833C1 1.70417 1.10097 1.46041 1.28069 1.28069C1.46041 1.10097 1.70417 1 1.95833 1H13.4593L20.1676 7.70833V23.0417C20.1676 23.1675 20.1428 23.2921 20.0947 23.4084C20.0465 23.5247 19.9759 23.6303 19.8869 23.7193C19.7979 23.8083 19.6923 23.8789 19.576 23.9271C19.4597 23.9752 19.3351 24 19.2093 24Z" stroke-width="1.91667" stroke-linecap="round" stroke-linejoin="round"/>
<path d="M13.46 1V7.70833H20.1693" stroke-width="1.91667" stroke-linecap="round" stroke-linejoin="round"/>
<path d="M6.75098 13.4585H14.4176" stroke-width="1.91667" stroke-linecap="round" stroke-linejoin="round"/>
<path d="M6.75098 17.2915H14.4176" stroke-width="1.91667" stroke-linecap="round" stroke-linejoin="round"/>
</svg>
