<svg width="28" height="26" viewBox="0 0 28 26" fill="none" xmlns="http://www.w3.org/2000/svg">
<path d="M20.9991 13.0011C21.004 16.911 20.2424 20.7839 18.7573 24.4008" stroke-width="2" stroke-linecap="round" stroke-linejoin="round"/>
<path d="M19.4713 9.00072C18.6612 8.0951 17.5952 7.45681 16.4143 7.17029C15.2335 6.88377 13.9934 6.96253 12.8583 7.39615C11.7232 7.82978 10.7465 8.59782 10.0575 9.59867C9.36842 10.5995 8.99947 11.786 8.99946 13.0011C9.00419 16.0505 8.23061 19.0507 6.75195 21.7176" stroke-width="2" stroke-linecap="round" stroke-linejoin="round"/>
<path d="M10.999 1.68395C12.8093 1.04593 14.7461 0.851131 16.6472 1.1159C18.5482 1.38066 20.3581 2.09727 21.9251 3.20566C23.4922 4.31405 24.7707 5.78192 25.6535 7.48625C26.5363 9.19058 26.9978 11.0817 26.9991 13.0011C27.0008 15.6927 26.7016 18.376 26.107 21.001" stroke-width="2" stroke-linecap="round" stroke-linejoin="round"/>
<path d="M1.91113 18.0012C2.63042 16.4326 3.00162 14.7268 2.99922 13.0012C2.99731 11.3125 3.35273 9.64251 4.04211 8.10095C4.7315 6.55939 5.73926 5.18115 6.99919 4.05676" stroke-width="2" stroke-linecap="round" stroke-linejoin="round"/>
<path d="M12.8216 23.0011C12.5681 23.5535 12.2946 24.0942 12.001 24.6234" stroke-width="2" stroke-linecap="round" stroke-linejoin="round"/>
<path d="M14.9978 13.0011C14.9993 15.025 14.7453 17.0409 14.2417 19.0011" stroke-width="2" stroke-linecap="round" stroke-linejoin="round"/>
</svg>
