<svg width="27" height="24" viewBox="0 0 27 24" fill="none" xmlns="http://www.w3.org/2000/svg">
<path d="M1 3.11304V20.0174C1 20.5778 1.22262 21.1153 1.6189 21.5115C2.01517 21.9078 2.55263 22.1304 3.11304 22.1304H24.2435C24.5237 22.1304 24.7924 22.0191 24.9905 21.821C25.1887 21.6228 25.3 21.3541 25.3 21.0739V6.28261C25.3 6.0024 25.1887 5.73367 24.9905 5.53553C24.7924 5.3374 24.5237 5.22609 24.2435 5.22609H3.11304C2.55263 5.22609 2.01517 5.00346 1.6189 4.60719C1.22262 4.21092 1 3.67346 1 3.11304ZM1 3.11304C1 2.55263 1.22262 2.01517 1.6189 1.6189C2.01517 1.22262 2.55263 1 3.11304 1H21.0739" stroke-width="2" stroke-linecap="round" stroke-linejoin="round"/>
<path d="M19.4891 14.9991C20.2185 14.9991 20.8098 14.4078 20.8098 13.6784C20.8098 12.9491 20.2185 12.3578 19.4891 12.3578C18.7597 12.3578 18.1685 12.9491 18.1685 13.6784C18.1685 14.4078 18.7597 14.9991 19.4891 14.9991Z"/>
</svg>
